<?xml version="1.0" standalone="no"?>
<!DOCTYPE svg PUBLIC "-//W3C//DTD SVG 20010904//EN"
 "http://www.w3.org/TR/2001/REC-SVG-20010904/DTD/svg10.dtd">
<svg version="1.0" xmlns="http://www.w3.org/2000/svg"
 width="182.000000pt" height="40.000000pt" viewBox="0 0 182.000000 40.000000"
 preserveAspectRatio="xMidYMid meet">
<metadata>
Created by potrace 1.10, written by Peter Selinger 2001-2011
</metadata>
<g transform="translate(0.000000,40.000000) scale(0.100000,-0.100000)"
fill="#000000" stroke="none">
<path d="M243 323 c-23 -4 -32 -28 -14 -35 5 -2 3 -37 -6 -81 -18 -87 -12
-104 31 -93 28 7 36 26 11 26 -18 0 -18 -2 0 80 16 73 19 111 8 109 -5 -1 -18
-4 -30 -6z"/>
<path d="M100 300 c-30 -30 -24 -56 21 -101 34 -33 39 -42 28 -55 -18 -22 -53
-14 -57 14 -2 12 -8 22 -13 22 -5 0 -14 -10 -18 -22 -12 -30 11 -48 59 -48 75
0 94 68 34 118 -23 19 -35 37 -32 48 5 27 38 31 45 5 7 -29 33 -27 33 3 0 40
-66 50 -100 16z"/>
<path d="M800 315 c0 -3 5 -13 11 -23 15 -24 -4 -138 -27 -163 -16 -18 -15
-19 34 -19 55 0 62 5 36 24 -11 8 -13 20 -9 39 8 29 32 36 41 12 10 -24 21
-17 28 17 8 40 4 43 -28 22 -15 -9 -28 -15 -30 -13 -2 2 -1 22 3 44 5 31 11
41 28 43 14 2 27 -4 35 -17 18 -29 28 -26 28 9 l0 30 -75 0 c-41 0 -75 -2 -75
-5z"/>
<path d="M663 293 c-7 -2 -13 -13 -13 -24 0 -10 -7 -19 -15 -19 -8 0 -15 -4
-15 -10 0 -5 4 -10 9 -10 6 0 9 -26 8 -57 -2 -54 0 -58 21 -61 26 -4 55 15 46
30 -3 5 -12 4 -20 -3 -11 -9 -14 -8 -14 9 0 48 13 82 31 82 11 0 19 5 19 10 0
6 -7 10 -16 10 -10 0 -14 7 -12 22 3 22 -8 30 -29 21z"/>
<path d="M1263 293 c-7 -2 -13 -13 -13 -24 0 -10 -7 -19 -15 -19 -17 0 -21
-16 -5 -22 7 -2 7 -15 0 -38 -14 -48 -13 -70 5 -76 20 -8 65 4 65 17 0 6 -7 9
-15 6 -22 -9 -27 8 -15 52 7 26 18 41 33 46 22 7 22 8 1 12 -16 3 -20 10 -16
29 4 24 -1 27 -25 17z"/>
<path d="M315 219 c-33 -40 -33 -102 1 -107 12 -2 28 4 37 12 13 14 16 14 21
1 6 -18 42 -20 52 -4 3 6 1 14 -5 18 -9 6 -9 19 -2 52 6 24 11 47 11 52 0 4
-20 7 -44 7 -37 0 -48 -5 -71 -31z m75 4 c-2 -18 -36 -77 -47 -81 -16 -4 -17
26 -3 62 9 23 51 39 50 19z"/>
<path d="M468 243 c-20 -5 -25 -23 -7 -23 11 0 7 -44 -7 -92 -4 -14 1 -18 20
-18 20 0 26 5 26 21 0 27 29 89 42 89 6 0 7 -22 3 -55 -7 -54 -7 -55 18 -55
28 0 46 18 29 29 -7 4 -8 19 -2 45 5 21 6 45 3 52 -7 19 -42 18 -65 -3 -17
-15 -18 -15 -18 0 0 17 -9 19 -42 10z"/>
<path d="M973 235 c-25 -17 -47 -83 -37 -109 8 -21 42 -21 66 1 17 15 18 15
18 0 0 -18 17 -21 44 -11 20 8 21 24 2 24 -11 0 -12 8 -5 38 15 66 13 72 -29
72 -21 0 -47 -7 -59 -15z m57 -16 c0 -18 -32 -79 -41 -79 -13 0 -11 64 3 78
15 15 38 16 38 1z"/>
<path d="M1110 218 c-22 -37 -26 -78 -8 -96 15 -15 61 -15 76 0 18 18 14 30
-7 19 -27 -15 -45 9 -36 49 7 32 36 53 43 32 6 -19 22 -14 22 8 0 16 -7 20
-35 20 -29 0 -39 -6 -55 -32z"/>
<path d="M1343 228 c-31 -34 -37 -65 -19 -93 23 -35 77 -35 105 1 23 29 28 83
9 102 -20 20 -72 14 -95 -10z m67 -29 c0 -38 -16 -69 -35 -69 -19 0 -21 70 -3
88 22 22 38 13 38 -19z"/>
<path d="M1488 243 c-20 -5 -25 -23 -7 -23 10 0 9 -16 -8 -87 -4 -18 -1 -23
14 -23 13 0 23 14 36 50 15 43 21 50 38 45 15 -5 19 -2 19 16 l0 22 19 -22
c24 -28 38 -116 21 -136 -7 -8 -25 -15 -41 -15 -19 0 -29 -5 -29 -15 0 -10 10
-15 29 -15 21 0 38 10 62 37 77 88 112 173 72 173 -26 0 -52 -20 -35 -27 15
-6 15 -25 0 -59 -13 -27 -13 -27 -23 27 l-10 54 -45 2 c-25 1 -51 -3 -57 -9
-9 -7 -13 -7 -13 1 0 11 -11 12 -42 4z"/>
</g>
</svg>
